<svg xmlns="http://www.w3.org/2000/svg" viewBox="0 0 200 260" width="320" height="416" role="img" aria-label="Candy floss on a cone">
  <defs>
    <radialGradient id="fluff" cx="50%" cy="40%" r="60%">
      <stop offset="0%" stop-color="#ffd6ec"/>
      <stop offset="60%" stop-color="#ff8fc2"/>
      <stop offset="100%" stop-color="#ff5fa6"/>
    </radialGradient>
    <linearGradient id="cone" x1="0" y1="0" x2="0" y2="1">
      <stop offset="0%" stop-color="#ffe2a8"/>
      <stop offset="100%" stop-color="#e0a94f"/>
    </linearGradient>
  </defs>

  <!-- Fluffy cloud of candy floss -->
  <g fill="url(#fluff)">
    <circle cx="100" cy="90" r="55"/>
    <circle cx="62"  cy="100" r="38"/>
    <circle cx="138" cy="100" r="38"/>
    <circle cx="80"  cy="60"  r="34"/>
    <circle cx="122" cy="58"  r="34"/>
    <circle cx="100" cy="120" r="44"/>
    <circle cx="45"  cy="78"  r="24"/>
    <circle cx="155" cy="78"  r="24"/>
  </g>

  <!-- Little highlights -->
  <g fill="#ffffff" opacity="0.55">
    <circle cx="78"  cy="62" r="9"/>
    <circle cx="120" cy="55" r="6"/>
    <circle cx="60"  cy="92" r="5"/>
  </g>

  <!-- Cone -->
  <path d="M84 150 L100 250 L116 150 Z" fill="url(#cone)" stroke="#d99a3f" stroke-width="2" stroke-linejoin="round"/>
  <!-- Cone cross-hatch -->
  <g stroke="#d99a3f" stroke-width="1.5" opacity="0.7">
    <line x1="88" y1="165" x2="112" y2="165"/>
    <line x1="90" y1="185" x2="110" y2="185"/>
    <line x1="93" y1="205" x2="107" y2="205"/>
    <line x1="96" y1="225" x2="104" y2="225"/>
  </g>
</svg>
