<svg xmlns="http://www.w3.org/2000/svg" viewBox="0 0 200 260" width="320" height="416" role="img" aria-label="Candy floss on a cone">
  <defs>
    <radialGradient id="fluff" cx="50%" cy="40%" r="62%">
      <stop offset="0%"  stop-color="#ffd6ec"/>
      <stop offset="55%" stop-color="#ff7ac0"/>
      <stop offset="100%" stop-color="#ec1c8e"/>
    </radialGradient>
    <linearGradient id="cone" x1="0" y1="0" x2="0" y2="1">
      <stop offset="0%"   stop-color="#ffd98a"/>
      <stop offset="100%" stop-color="#f9a826"/>
    </linearGradient>
  </defs>

  <!-- Fluffy cloud of candy floss, with a bright outline to pop on dark -->
  <g fill="url(#fluff)" stroke="#ffffff" stroke-width="3" stroke-opacity="0.85">
    <circle cx="100" cy="90"  r="55"/>
    <circle cx="62"  cy="100" r="38"/>
    <circle cx="138" cy="100" r="38"/>
    <circle cx="80"  cy="60"  r="34"/>
    <circle cx="122" cy="58"  r="34"/>
    <circle cx="100" cy="120" r="44"/>
    <circle cx="45"  cy="78"  r="24"/>
    <circle cx="155" cy="78"  r="24"/>
  </g>
  <!-- inner cloud (no stroke) to hide internal outlines -->
  <g fill="url(#fluff)">
    <circle cx="100" cy="92"  r="50"/>
    <circle cx="66"  cy="100" r="32"/>
    <circle cx="134" cy="100" r="32"/>
    <circle cx="100" cy="118" r="40"/>
  </g>

  <!-- highlights -->
  <g fill="#ffffff" opacity="0.6">
    <circle cx="78"  cy="62" r="9"/>
    <circle cx="120" cy="55" r="6"/>
    <circle cx="60"  cy="92" r="5"/>
  </g>

  <!-- Cone -->
  <path d="M84 150 L100 250 L116 150 Z" fill="url(#cone)" stroke="#b9791b" stroke-width="3" stroke-linejoin="round"/>
  <g stroke="#b9791b" stroke-width="2" opacity="0.75" stroke-linecap="round">
    <line x1="88" y1="166" x2="112" y2="166"/>
    <line x1="90" y1="186" x2="110" y2="186"/>
    <line x1="93" y1="206" x2="107" y2="206"/>
    <line x1="96" y1="226" x2="104" y2="226"/>
  </g>
</svg>
