<svg xmlns="http://www.w3.org/2000/svg" viewBox="0 0 120 120" width="120" height="120" role="img" aria-label="JJ Entertainments logo">
  <defs>
    <linearGradient id="ring" x1="0" y1="0" x2="1" y2="1">
      <stop offset="0%"   stop-color="#3fa9e0"/>
      <stop offset="38%"  stop-color="#8b63d6"/>
      <stop offset="70%"  stop-color="#ec1c8e"/>
      <stop offset="100%" stop-color="#f9a826"/>
    </linearGradient>
    <path id="jjArc" d="M 24 60 A 36 36 0 0 0 96 60" fill="none"/>
  </defs>

  <!-- dark disc -->
  <circle cx="60" cy="60" r="54" fill="#0a0a0c"/>
  <!-- a few brand sprinkles inside -->
  <g stroke-width="4" stroke-linecap="round">
    <line x1="30" y1="30" x2="40" y2="35" stroke="#3fa9e0"/>
    <line x1="92" y1="34" x2="88" y2="44" stroke="#ec1c8e"/>
    <line x1="86" y1="90" x2="94" y2="86" stroke="#f9a826"/>
    <line x1="26" y1="84" x2="34" y2="88" stroke="#ec1c8e"/>
  </g>
  <!-- gradient ring -->
  <circle cx="60" cy="60" r="50" fill="none" stroke="url(#ring)" stroke-width="6"/>

  <!-- Yellow J (upper) -->
  <path d="M70 30 V58 Q70 74 53 74 Q39 74 39 61" fill="none" stroke="#b9791b" stroke-width="26" stroke-linecap="round"/>
  <path d="M70 30 V58 Q70 74 53 74 Q39 74 39 61" fill="none" stroke="#f9a826" stroke-width="17" stroke-linecap="round"/>
  <!-- Pink J (lower, offset) -->
  <path d="M58 48 V76 Q58 92 41 92 Q27 92 27 79" fill="none" stroke="#b3186b" stroke-width="26" stroke-linecap="round"/>
  <path d="M58 48 V76 Q58 92 41 92 Q27 92 27 79" fill="none" stroke="#ec1c8e" stroke-width="17" stroke-linecap="round"/>

  <!-- curved wordmark -->
  <text font-family="'Baloo 2', 'Nunito', sans-serif" font-size="11" font-weight="700" fill="#ffffff" letter-spacing="1">
    <textPath href="#jjArc" startOffset="50%" text-anchor="middle">entertainments</textPath>
  </text>
</svg>
